<svg width="84" height="84" viewBox="0 0 84 84" fill="none" xmlns="http://www.w3.org/2000/svg">
<circle cx="42" cy="42" r="42" fill="black"/>
<path d="M26.7 50.5C26.5 50.4 26.4 50.3 26.2 50.3C25.7 50.1 25.2 49.7 24.7 49.4C24.1 49 23.6 48.5 23.1 47.9C22.6 47.4 22.1 46.8 21.7 46.2C21.3 45.6 20.9 45 20.6 44.3C20.4 43.9 20.2 43.5 20.1 43.1C20 42.7 19.8 42.4 19.7 42C19.6 41.7 19.5 41.3 19.4 41C19.3 40.7 19.3 40.4 19.2 40.1V40C19.2 39.7 19.2 39.5 19.1 39.2C19 38.8 19.1 38.4 19 38C19 37.9 19 37.9 19 37.8C19 37.5 19.1 37.2 19.1 36.9V36.8C19.1 36.3 19.3 35.8 19.4 35.3C19.5 34.9 19.6 34.5 19.8 34.1C20 33.7 20.2 33.2 20.4 32.8C20.6 32.3 20.9 31.9 21.2 31.4C21.7 30.5 22.3 29.7 23 28.9C23.4 28.5 23.7 28.1 24 27.6C24.3 27.3 24.6 26.7 24.7 26.1C24.8 25.7 24.8 25.4 24.8 25C24.8 24.6 24.7 24.2 24.6 23.9C24.6 23.6 24.5 23.4 24.4 23.1C24.2 22.7 24 22.2 23.7 21.9C23.3 21.4 22.9 21 22.4 20.6C22 20.3 21.7 19.9 21.3 19.6C21.2 19.5 21.2 19.3 21.2 19.2C21.2 19.1 21.4 19 21.5 19C21.8 19 22.1 19.1 22.4 19.2C23 19.5 23.7 19.9 24.2 20.4C24.7 20.9 25.2 21.4 25.7 22C26 22.4 26.3 22.9 26.5 23.3C26.7 23.7 26.9 24.2 27 24.7C27.1 25 27.1 25.3 27.2 25.6C27.3 26.2 27.3 26.8 27.3 27.4C27.3 27.7 27.3 27.9 27.2 28.2C27.2 28.3 27.2 28.3 27.2 28.4C27.2 28.5 27.2 28.6 27.2 28.6C27.1 29 26.9 29.4 26.8 29.9C26.7 30.3 26.5 30.6 26.3 31C26 31.5 25.7 31.9 25.4 32.4C25.1 32.8 24.8 33.2 24.6 33.7C24.5 34 24.3 34.2 24.2 34.5C24.1 34.8 24.1 35.1 24.1 35.5C24.1 35.8 24.2 36.1 24.3 36.5C24.5 37 24.7 37.5 24.9 38C25.2 38.6 25.6 39.2 26.1 39.8C26.5 40.2 26.9 40.6 27.3 41C27.6 41.3 28 41.5 28.4 41.8C28.8 42 29.2 42.1 29.6 42.1H29.7C29.7 42 29.7 41.9 29.7 41.8C29.7 39.3 29.7 36.8 29.7 34.3C29.7 34.2 29.7 34 29.8 33.9C29.8 33.7 29.8 33.6 29.8 33.4C29.8 33.3 29.8 33.2 29.9 33.1C29.9 33.1 29.9 33.1 29.9 33C29.9 32.8 29.9 32.6 30 32.3C30 32.2 30 32.1 30.1 32.1C30.2 31.9 30.2 31.7 30.3 31.5C30.4 31.2 30.4 30.8 30.6 30.5C30.7 30.4 30.7 30.2 30.8 30.1C30.9 29.8 31 29.6 31.1 29.4C31.2 29.2 31.2 29.1 31.3 28.9C31.4 28.8 31.4 28.7 31.5 28.5C31.8 28.1 32 27.7 32.3 27.3C32.6 26.9 32.9 26.5 33.2 26.2C33.4 26 33.6 25.8 33.8 25.6C34.1 25.4 34.3 25.1 34.6 24.9C34.9 24.6 35.3 24.4 35.6 24.1C35.6 24.1 35.6 24.1 35.7 24C35.9 23.9 36.1 23.8 36.3 23.7C36.6 23.5 36.9 23.4 37.3 23.2C37.8 22.9 38.4 22.7 39 22.5C39.3 22.4 39.7 22.3 40 22.2C39.9 22.1 40.1 22.1 40.3 22.1C40.4 22.1 40.4 22.1 40.5 22.1H40.6C40.7 22.1 40.9 22.1 41 22H41.1C41.9 22 42.6 22 43.4 22C43.6 22 43.9 22.1 44.1 22.1C44.1 22.1 44.1 22.1 44.2 22.1C44.4 22.1 44.6 22.2 44.9 22.2C45 22.2 45.2 22.3 45.3 22.3C45.5 22.4 45.7 22.4 46 22.5C46.2 22.5 46.3 22.6 46.5 22.7C46.9 22.9 47.4 23.1 47.8 23.3C48.1 23.4 48.4 23.6 48.7 23.8C49 23.8 49.3 23.9 49.5 24.1C49.8 24.3 50 24.5 50.3 24.7C50.5 24.8 50.6 25 50.8 25.1C51.1 25.3 51.3 25.6 51.6 25.8C51.9 26.1 52.2 26.4 52.4 26.8C52.7 27.2 53 27.5 53.2 27.9C53.3 28.1 53.5 28.3 53.6 28.5C53.7 28.7 53.7 28.8 53.8 29C53.9 29.2 54 29.4 54.1 29.7C54.2 29.9 54.2 30.1 54.3 30.2C54.3 30.3 54.4 30.4 54.4 30.5C54.5 30.7 54.5 30.9 54.6 31.1C54.7 31.4 54.8 31.7 54.8 32C54.9 32.2 54.9 32.5 54.9 32.7C54.9 32.8 54.9 32.9 54.9 32.9V33C54.9 33.4 55 33.8 55 34.2C55 36.6 55 39.1 55 41.5C55 41.6 55 41.7 55 41.8C55.1 41.8 55.2 41.8 55.3 41.8C55.9 41.8 56.4 41.5 56.8 41.2C57.4 40.8 57.9 40.3 58.4 39.8C58.8 39.3 59.2 38.8 59.5 38.3C59.7 38 59.9 37.6 60 37.3C60.1 37 60.2 36.7 60.4 36.4C60.5 36.1 60.6 35.8 60.7 35.5C60.8 35.2 60.7 34.8 60.6 34.5C60.4 33.8 60 33.2 59.6 32.6C59.3 32.2 59 31.7 58.7 31.3C58.4 30.8 58.2 30.4 58 29.8C57.8 29.2 57.7 28.7 57.6 28.1C57.5 27.4 57.5 26.7 57.6 26C57.6 25.7 57.7 25.3 57.8 25C57.9 24.4 58.1 23.9 58.4 23.4C58.6 22.8 59 22.1 59.5 21.6C59.7 21.3 59.9 21.1 60.2 20.9C60.8 20.3 61.4 19.8 62.1 19.4C62.2 19.3 62.4 19.3 62.5 19.2C62.7 19 63 19 63.3 19C63.4 19 63.6 19 63.6 19.2C63.7 19.3 63.6 19.5 63.5 19.6C63.1 20 62.8 20.3 62.4 20.6C61.8 21.1 61.2 21.6 60.8 22.3C60.5 22.7 60.3 23.1 60.2 23.6C60.1 23.9 60 24.3 60 24.6C60 25.1 60 25.6 60.1 26C60.2 26.6 60.5 27.1 60.8 27.6C61 27.9 61.3 28.2 61.5 28.5C62 29.1 62.4 29.6 62.9 30.2C63.2 30.6 63.4 31 63.7 31.4C63.9 31.7 64.1 32 64.2 32.3C64.3 32.5 64.4 32.6 64.4 32.8C64.6 33.2 64.8 33.6 64.9 34.1C65.1 34.5 65.2 34.9 65.3 35.2C65.5 35.8 65.6 36.4 65.6 37C65.6 37.1 65.6 37.3 65.6 37.4C65.6 38 65.6 38.6 65.6 39.2C65.6 39.6 65.5 40 65.4 40.4C65.4 40.7 65.3 41.1 65.2 41.4C65.1 41.8 65 42.2 64.8 42.6C64.7 42.9 64.6 43.2 64.5 43.5C64.4 43.8 64.2 44 64.1 44.3C63.8 44.9 63.4 45.5 63 46.1C62.6 46.7 62.2 47.2 61.7 47.7C61.1 48.4 60.4 49 59.7 49.5C59.2 49.9 58.6 50.2 58.1 50.4C58 50.4 58 50.4 57.9 50.5C57.9 50.6 57.9 50.7 57.9 50.8C57.9 54.3 57.9 57.7 57.9 61.2C57.9 61.3 57.9 61.5 57.8 61.6C57.7 61.9 57.5 62.3 57.2 62.5C57.1 62.6 57 62.6 56.9 62.7C56.6 62.8 56.4 62.9 56.1 63C55.8 63.1 55.5 63.2 55.3 63.3C54.9 63.5 54.6 63.5 54.2 63.6C54 63.7 53.7 63.8 53.5 63.8C53.4 63.8 53.2 63.9 53.1 63.9C53 63.9 52.9 63.9 52.8 64C52.5 64.1 52.3 64.2 52 64.2C51.8 64.2 51.7 64.3 51.5 64.3C51.3 64.3 51.1 64.4 51 64.4C50.8 64.4 50.5 64.5 50.3 64.6C50.1 64.6 49.9 64.7 49.8 64.7C49.6 64.7 49.4 64.7 49.2 64.8C49.1 64.8 49.1 64.8 49 64.9C49 64.9 49 64.9 48.9 64.9C48.7 64.9 48.5 65 48.2 65C48.1 65 47.9 65.1 47.8 65.1C47.7 65.1 47.6 65.1 47.4 65.2C47.3 65.2 47.2 65.2 47.1 65.3H47C46.8 65.3 46.6 65.3 46.4 65.4C46.3 65.4 46.1 65.4 46 65.4C45.9 65.4 45.8 65.4 45.7 65.4C45.6 65.4 45.6 65.4 45.5 65.4C45.3 65.4 45.1 65.4 44.9 65.4C44.8 65.4 44.7 65.4 44.6 65.5C44.6 65.5 44.5 65.5 44.4 65.5C43 65.5 41.6 65.5 40.2 65.5C40.1 65.5 40.1 65.5 40 65.4C39.9 65.4 39.9 65.4 39.8 65.4C39.6 65.4 39.4 65.4 39.3 65.4C39.2 65.4 39 65.4 38.9 65.3C38.8 65.3 38.6 65.3 38.4 65.3C38.3 65.3 38.2 65.3 38.1 65.2C38.1 65.2 38.1 65.2 38 65.2C37.7 65.2 37.4 65.2 37.1 65.1C37 65.1 36.8 65.1 36.7 65C36.5 65 36.2 64.9 36 64.9C35.9 64.9 35.9 64.9 35.8 64.9C35.7 64.9 35.6 64.9 35.6 64.9C35.6 64.9 35.6 64.9 35.5 64.9C35.3 64.9 35.1 64.9 34.8 64.8C34.6 64.8 34.5 64.7 34.3 64.7C34.1 64.6 33.9 64.6 33.7 64.5C33.5 64.5 33.3 64.5 33.1 64.4C32.9 64.4 32.8 64.3 32.6 64.3C32.4 64.3 32.2 64.2 32.1 64.2C31.8 64.1 31.5 64.1 31.2 64C31 63.9 30.7 63.8 30.5 63.8C30.3 63.7 30.1 63.7 29.9 63.6C29.6 63.5 29.3 63.4 29.1 63.3C28.8 63.2 28.6 63.1 28.3 63C28 62.9 27.6 62.7 27.3 62.6C27.1 62.5 26.9 62.3 26.8 62.1C26.8 62 26.7 61.9 26.7 61.8C26.6 61.7 26.6 61.5 26.6 61.3C26.6 57.8 26.6 54.4 26.6 50.9C26.7 50.7 26.7 50.6 26.7 50.5ZM50.6 40.8C50.7 40.7 50.6 40.7 50.6 40.8C50.6 38.5 50.6 36.2 50.6 33.9V33.8C50.5 33.7 50.5 33.5 50.5 33.4C50.5 33.3 50.5 33.3 50.5 33.2C50.5 33.1 50.5 33.1 50.5 33C50.5 32.8 50.5 32.7 50.4 32.5C50.3 32.3 50.3 32.1 50.2 32C50.1 31.6 50 31.2 49.7 30.9C49.4 30.3 49 29.7 48.6 29.2C48.5 29.1 48.5 29 48.4 28.9C48.2 28.6 47.9 28.4 47.6 28.1C47.3 27.9 47 27.6 46.7 27.5C46.4 27.3 46 27.1 45.7 27C45.4 26.9 45.1 26.7 44.8 26.7C44.6 26.7 44.4 26.6 44.3 26.6C44.1 26.6 43.9 26.5 43.8 26.5C43.5 26.4 43.2 26.4 43 26.4C42.6 26.4 42.3 26.4 41.9 26.4C41.8 26.4 41.8 26.4 41.7 26.4C41.4 26.5 41.1 26.5 40.8 26.6C40.7 26.6 40.5 26.6 40.4 26.7C40.3 26.7 40.1 26.8 40 26.8C39.8 26.9 39.7 26.9 39.5 27C39 27.1 38.7 27.2 38.5 27.3C38.2 27.5 37.9 27.7 37.5 27.9C37.4 28 37.2 28.1 37.1 28.2C37 28.3 36.8 28.4 36.7 28.6C36.6 28.7 36.6 28.7 36.5 28.8C36.3 29.1 36.1 29.3 35.9 29.6C35.8 29.8 35.6 30 35.5 30.2C35.2 30.6 35 31.1 34.8 31.5C34.7 31.6 34.7 31.8 34.7 31.9C34.5 32.3 34.4 32.7 34.4 33.1V33.2C34.4 33.3 34.4 33.4 34.3 33.5C34.3 33.6 34.3 33.6 34.3 33.7C34.2 33.8 34.2 33.9 34.2 34.1C34.2 36.3 34.2 38.5 34.2 40.6C34.2 40.7 34.2 40.7 34.2 40.8C34.3 40.8 34.4 40.8 34.5 40.7H34.6C34.8 40.7 35 40.7 35.2 40.6C35.4 40.5 35.6 40.6 35.8 40.5C36.1 40.5 36.5 40.3 36.8 40.4H36.9C37 40.4 37.1 40.4 37.3 40.3C37.4 40.3 37.4 40.3 37.5 40.3C37.8 40.2 38 40.3 38.3 40.2C38.6 40.1 38.9 40.2 39.3 40.1C39.6 40 39.9 40.1 40.2 40C40.8 39.9 41.4 39.9 42 39.9C43.2 39.9 44.4 40 45.6 40C45.6 40 45.6 40 45.7 40C45.9 40.1 46.2 40.1 46.4 40.1C46.5 40.1 46.6 40.1 46.6 40.1C46.7 40.2 46.9 40.2 47 40.2C47.1 40.2 47.1 40.2 47.2 40.2C47.5 40.3 47.7 40.3 48 40.3C48.2 40.3 48.5 40.4 48.7 40.4C48.9 40.4 49.1 40.5 49.4 40.5H49.5C49.6 40.5 49.6 40.5 49.7 40.5C49.8 40.5 49.9 40.5 50 40.6C50.2 40.6 50.4 40.7 50.5 40.7C50.5 40.8 50.6 40.8 50.6 40.8ZM40.7 55.2C40.7 56.1 40.7 56.9 40.7 57.8C40.7 58.1 40.7 58.4 40.8 58.6C40.9 58.8 40.9 59 41.1 59.1C41.4 59.4 41.6 59.6 42 59.6C42.3 59.7 42.7 59.7 43 59.5C43.3 59.4 43.5 59.2 43.7 59C43.9 58.8 44 58.5 44 58.3C44 58 44 57.7 44 57.5C44 56.2 44 54.8 44 53.5C44 53.1 44 52.8 44 52.4C44 52.2 44.1 52.1 44.2 52.1C44.3 52 44.4 52 44.5 51.9C44.7 51.7 45 51.5 45.2 51.2C45.5 50.8 45.7 50.4 45.7 50C45.7 49.7 45.9 49.4 45.7 49.1V49C45.7 48.7 45.6 48.5 45.5 48.2C45.3 47.8 45.1 47.4 44.8 47.1C44.7 47 44.5 46.8 44.4 46.7C44.1 46.5 43.8 46.3 43.5 46.2C43.3 46.2 43.1 46.1 43 46.1C42.9 46.1 42.8 46.1 42.7 46.1C42.6 46.1 42.4 46.1 42.3 46.1C42.2 46.1 42.1 46.1 42 46.1C41.8 46.1 41.6 46.2 41.5 46.2C41.2 46.3 41 46.4 40.8 46.5C40.4 46.7 40.1 47 39.9 47.3C39.7 47.6 39.5 47.9 39.4 48.3C39.3 48.5 39.3 48.7 39.3 49C39.3 49.1 39.3 49.1 39.3 49.2C39.2 49.3 39.3 49.5 39.3 49.6C39.3 49.7 39.3 49.7 39.3 49.8C39.3 50.1 39.4 50.4 39.5 50.6C39.6 50.8 39.7 51 39.9 51.2C40.1 51.5 40.4 51.8 40.8 52C41 52.1 41 52.2 41 52.4C40.7 53.5 40.7 54.4 40.7 55.2Z" fill="white"/>
</svg>
