<svg width="32" height="32" viewBox="0 0 32 32" fill="none" xmlns="http://www.w3.org/2000/svg">
<rect width="32" height="32" rx="5" fill="black"/>
<path fill-rule="evenodd" clip-rule="evenodd" d="M7.63607 24.8992C9.60643 26.7447 12.2266 27.905 15.1162 27.9997V23.6014C13.4437 23.4981 11.9227 22.8349 10.7383 21.7969L7.63607 24.8992ZM10.5013 10.966C11.7163 9.8038 13.3299 9.05476 15.1162 8.94446V5.00035C12.2266 5.09505 9.60644 6.25528 7.63608 8.10082L10.5013 10.966ZM15.8732 8.93623V5.00001C18.7671 5.09223 21.3912 6.25304 23.3639 8.10082L20.5723 10.8925C19.3294 9.73775 17.6858 9.00845 15.8732 8.93623ZM15.8732 28V23.6096C17.5713 23.5419 19.121 22.8976 20.3319 21.8671L23.3639 24.8992C21.3912 26.747 18.7671 27.9078 15.8732 28ZM8.23457 16.1267H4C4.09223 13.2329 5.25304 10.6088 7.10083 8.63608L9.98154 11.5168C8.9205 12.7636 8.26889 14.3695 8.23457 16.1267ZM22.9169 16.1267C22.8819 14.3311 22.2022 12.6934 21.0998 11.4355L23.8992 8.63608C25.7469 10.6088 26.9078 13.2329 27 16.1267H22.9169ZM26.9996 16.8837H22.8933C22.7512 18.6098 22.012 20.1667 20.8827 21.3474L23.8992 24.3639C25.7447 22.3935 26.905 19.7734 26.9996 16.8837ZM8.25819 16.8837C8.39723 18.5721 9.1075 20.0986 10.1953 21.2694L7.10081 24.3639C5.25526 22.3935 4.09502 19.7734 4.00034 16.8837H8.25819Z" fill="#00FF38"/>
</svg>
