<svg width="84" height="84" viewBox="0 0 84 84" fill="none" xmlns="http://www.w3.org/2000/svg">
<circle cx="42" cy="42" r="42" fill="black"/>
<path d="M31.2028 56.574C30.1955 56.574 29.4086 56.2908 28.8735 55.724C27.52 54.3706 27.8347 51.4118 29.6604 47.6345C33.2488 40.2689 41.7161 31.7072 48.4836 28.5595C51.5684 27.1116 53.9292 27.0171 55.1252 28.2132C56.479 29.5668 56.1642 32.5256 54.3383 36.3028C50.7499 43.6684 42.2827 52.2303 35.5151 55.378C33.8469 56.1962 32.3674 56.574 31.2028 56.574ZM48.5466 28.7169C41.779 31.8331 33.3747 40.3633 29.7863 47.729C27.9606 51.4434 27.6774 54.3391 28.9679 55.6613C30.1011 56.8257 32.4304 56.6999 35.4522 55.2834C42.2197 52.1672 50.6241 43.6369 54.2125 36.2714C56.038 32.5571 56.3216 29.6612 55.0309 28.3391C53.8977 27.1745 51.5684 27.3004 48.5466 28.7169Z" fill="white"/>
<path d="M30.48 56.7942C29.3153 56.7942 28.4025 56.4479 27.8359 55.7868C26.4824 54.2129 26.986 51.0025 29.2209 46.9733C33.4388 39.3243 42.5986 30.857 49.6495 28.1185C52.734 26.8909 55.0636 26.9539 56.1965 28.2444C57.5503 29.8183 57.0466 33.0289 54.8116 37.058C50.5938 44.7069 41.4339 53.1743 34.3831 55.9126C32.8722 56.4794 31.5502 56.7942 30.48 56.7942ZM53.521 27.3631C52.4508 27.3631 51.1605 27.6464 49.6809 28.2444C42.6616 30.9829 33.5647 39.4188 29.3468 47.0362C27.1434 51.0337 26.6398 54.1814 27.9618 55.6925C29.032 56.9201 31.2984 56.9516 34.3202 55.7868C41.3395 53.0481 50.4364 44.6125 54.6542 36.995C56.8576 32.9975 57.3613 29.8498 56.0392 28.3388C55.5042 27.6779 54.6542 27.3631 53.521 27.3631Z" fill="white"/>
<path d="M29.8179 56.92C28.4644 56.92 27.4257 56.5106 26.7962 55.7237C25.4111 53.9612 26.1666 50.4671 28.8107 46.1548C33.6896 38.2855 43.5419 29.9756 50.8132 27.6778C53.8663 26.702 56.1328 26.9223 57.2029 28.2759C58.5879 30.0386 57.8325 33.5325 55.1885 37.8449C50.3095 45.7141 40.4572 54.024 33.186 56.322C31.9269 56.7311 30.7937 56.92 29.8179 56.92ZM54.1811 27.2056C53.2367 27.2056 52.1038 27.3945 50.8447 27.8037C43.6364 30.1015 33.8155 38.38 28.9366 46.2177C26.2925 50.4671 25.5685 53.8981 26.8906 55.6294C27.8978 56.9516 30.1327 57.1402 33.123 56.1646C40.3313 53.8666 50.1521 45.5882 55.0311 37.7504C57.6751 33.501 58.3989 30.07 57.0771 28.3388C56.4791 27.5834 55.5032 27.2056 54.1811 27.2056Z" fill="white"/>
<path d="M29.2193 57.0458C27.614 57.0458 26.4493 56.5421 25.7569 55.5978C24.3719 53.5833 25.3791 49.8375 28.4954 45.2734C34.0353 37.2153 44.5801 29.1572 52.0087 27.3315C55.0621 26.5761 57.2024 26.9538 58.241 28.4017C59.626 30.4163 58.6189 34.162 55.5027 38.7262C49.9627 46.7843 39.4179 54.8424 31.9893 56.6679C30.9506 56.92 30.0377 57.0458 29.2193 57.0458ZM54.7785 27.0797C53.9916 27.0797 53.0788 27.2056 52.0402 27.4574C44.6431 29.2831 34.1297 37.3097 28.6213 45.3363C25.5365 49.8376 24.5293 53.5518 25.8828 55.5035C26.8585 56.92 28.9361 57.2663 31.9264 56.5106C39.3234 54.685 49.8368 46.6584 55.3453 38.6317C58.43 34.1305 59.4374 30.4162 58.0836 28.4647C57.4856 27.5518 56.3524 27.0797 54.7785 27.0797Z" fill="white"/>
<path d="M28.7172 57.1091C26.7971 57.1091 25.4436 56.5107 24.7196 55.3463C23.3346 53.0797 24.6252 49.0508 28.2451 44.2663C34.509 36.0508 45.7148 28.3389 53.2693 27.0483C56.2596 26.5447 58.3372 27.0798 59.2815 28.6222C60.6664 30.8885 59.3758 34.9176 55.7559 39.7021C49.5235 47.9176 38.3177 55.6295 30.7632 56.8886C30.0078 57.046 29.3468 57.1091 28.7172 57.1091ZM55.2838 27.0169C54.6858 27.0169 54.0247 27.0798 53.3008 27.2057C45.7778 28.4648 34.6034 36.1767 28.4025 44.3292C24.877 48.9878 23.555 53.0482 24.877 55.2516C25.7899 56.7312 27.8044 57.2661 30.7317 56.7627C38.2548 55.5036 49.4291 47.7917 55.6301 39.6391C59.1553 34.9806 60.4775 30.92 59.1553 28.7166C58.463 27.6149 57.1409 27.0169 55.2838 27.0169Z" fill="white"/>
<path d="M28.4004 57.1402C26.0711 57.1402 24.4657 56.4164 23.7418 54.9999C22.4197 52.4817 24.0566 48.0435 28.1485 43.1645C35.0735 34.8546 46.9089 27.5834 54.5578 26.9224C57.4851 26.6706 59.468 27.3946 60.318 29.0314C61.6402 31.5495 60.0033 35.9878 55.9112 40.8667C48.9863 49.1766 37.151 56.4479 29.5021 57.1087C29.0929 57.1087 28.7466 57.1402 28.4004 57.1402ZM54.5263 27.0483C46.9089 27.7093 35.1364 34.9805 28.243 43.259C24.2139 48.1064 22.5771 52.4502 23.8677 54.9368C24.6861 56.5107 26.6377 57.2033 29.4706 56.9513C37.088 56.2906 48.8604 49.0193 55.7538 40.7408C59.7828 35.8933 61.4197 31.5495 60.1291 29.0629C59.3106 27.489 57.3592 26.7965 54.5263 27.0483Z" fill="white"/>
<path d="M28.2125 57.1403C25.3796 57.1403 23.4909 56.2276 22.7355 54.4963C21.4764 51.6634 23.4909 46.9419 28.0866 41.9371C35.704 33.6272 48.1374 26.8281 55.7863 26.8281C58.6193 26.8281 60.5079 27.741 61.2633 29.4722C62.5224 32.3051 60.5079 37.0267 55.9122 42.0315C48.3263 50.3729 35.8928 57.1403 28.2125 57.1403ZM55.7863 26.9855C48.1689 26.9855 35.7669 33.7216 28.181 42.0315C23.6168 47.0049 21.6338 51.6322 22.8614 54.4336C23.5853 56.1017 25.4425 56.983 28.2125 56.983C35.8299 56.983 48.2319 50.247 55.8179 41.9371C60.3821 36.9637 62.365 32.3366 61.1375 29.5351C60.3821 27.8669 58.5562 26.9855 55.7863 26.9855Z" fill="white"/>
<path d="M28.214 57.1403C27.7733 57.1403 27.3327 57.1091 26.9234 57.0775C24.2164 56.8255 22.4222 55.7238 21.7612 53.8667C20.628 50.6878 22.9888 45.7142 28.1196 40.6149C36.4295 32.305 49.398 26.167 57.0469 26.891C59.7541 27.1428 61.5481 28.2445 62.2092 30.1017C63.3424 33.2808 60.9816 38.2542 55.8509 43.3535C48.013 51.2227 35.9573 57.1403 28.214 57.1403ZM55.7878 26.9854C48.076 26.9854 36.0832 32.9031 28.2455 40.7094C23.1777 45.7772 20.7854 50.6878 21.9186 53.8039C22.5481 55.5664 24.3109 56.6681 26.9549 56.9201C34.5409 57.644 47.4779 51.5059 55.7563 43.2276C60.8242 38.1597 63.2166 33.2494 62.0833 30.1331C61.4538 28.3704 59.691 27.2687 57.0469 27.0169C56.6379 27.0169 56.2285 26.9854 55.7878 26.9854Z" fill="white"/>
<path d="M28.4328 57.1719C27.457 57.1719 26.5127 57.0776 25.6629 56.9202C23.0503 56.385 21.382 55.0943 20.8469 53.1114C19.8711 49.5545 22.6411 44.3608 28.3069 39.1986C37.3093 31.0145 50.7815 25.569 58.3361 27.0799C60.9486 27.615 62.6167 28.9056 63.152 30.8886C64.1278 34.4455 61.3576 39.6393 55.6921 44.8015C47.6967 52.0728 36.2076 57.1719 28.4328 57.1719ZM55.5347 26.9855C47.8227 26.9855 36.365 32.0848 28.4013 39.3245C22.7985 44.4237 20.0285 49.5545 21.0042 53.0798C21.5394 54.9685 23.1447 56.2591 25.7258 56.7628C26.5757 56.9202 27.4885 57.0145 28.4643 57.0145C36.1761 57.0145 47.6338 51.9154 55.5974 44.6756C61.2002 39.5763 63.9705 34.4455 62.9946 30.9201C62.4593 29.0315 60.8543 27.7409 58.273 27.2373C57.4545 27.0485 56.5102 26.9855 55.5347 26.9855Z" fill="white"/>
<path d="M28.9055 57.2034C27.2372 57.2034 25.7263 57.0145 24.4357 56.5739C21.9176 55.787 20.3752 54.2446 19.9975 52.1355C19.2421 48.1695 22.4527 42.7554 28.5907 37.6562C38.2856 29.6295 52.167 25.0339 59.5641 27.3632C62.0823 28.1501 63.6246 29.6925 64.0025 31.8015C64.7579 35.7676 61.5471 41.1816 55.409 46.2809C47.4454 52.9225 36.6174 57.2034 28.9055 57.2034ZM55.063 26.9225C47.414 26.9225 36.6174 31.2034 28.6851 37.7821C22.5786 42.8499 19.368 48.201 20.1234 52.104C20.5326 54.15 22.012 55.6296 24.4672 56.4165C31.8014 58.7458 45.6513 54.15 55.2831 46.155C61.3897 41.0872 64.6005 35.7361 63.8451 31.833C63.4357 29.7869 61.9565 28.3075 59.501 27.5206C58.2104 27.1429 56.7312 26.9225 55.063 26.9225Z" fill="white"/>
<path d="M29.661 57.2977C27.2058 57.2977 25.0024 56.9202 23.2397 56.1017C20.8475 55 19.4625 53.2372 19.2107 50.9711C18.7385 46.5957 22.3898 41.0242 29.0315 36.0509C39.3874 28.2761 53.6151 24.5932 60.7918 27.8669C63.1841 28.9685 64.5691 30.7313 64.8207 32.9976C65.2929 37.3729 61.6418 42.9443 55 47.9177C47.1937 53.7725 37.1841 57.2977 29.661 57.2977ZM54.3074 26.8281C46.816 26.8281 36.8693 30.3535 29.0945 36.1768C22.5158 41.1187 18.8644 46.6586 19.3366 50.9711C19.5884 53.1745 20.9419 54.9057 23.3027 55.9759C30.4165 59.2179 44.5811 55.5353 54.9057 47.7918C61.4844 42.8499 65.1355 37.31 64.6634 32.9976C64.4117 30.7942 63.0583 29.063 60.6975 27.9928C58.9347 27.2058 56.7628 26.8281 54.3074 26.8281Z" fill="white"/>
<path d="M30.7325 57.5181C27.3015 57.5181 24.2797 56.8886 22.0763 55.5352C19.7785 54.1499 18.5509 52.1039 18.4879 49.6173C18.3935 44.8328 22.517 39.1355 29.5678 34.351C40.5533 26.9224 55.0643 24.2784 61.9263 28.4963C64.224 29.8813 65.4515 31.9273 65.5146 34.414C65.6089 39.1984 61.4856 44.8958 54.4348 49.6803C46.9746 54.6852 37.9092 57.5181 30.7325 57.5181ZM53.27 26.6391C46.0932 26.6391 37.0908 29.4721 29.6622 34.4769C22.6744 39.2299 18.5509 44.8643 18.6453 49.5859C18.7083 52.0096 19.9044 53.9925 22.1393 55.3778C28.9383 59.5326 43.3862 56.9201 54.3086 49.5229C61.2967 44.7699 65.42 39.1355 65.3257 34.414C65.2626 31.9902 64.0666 30.0072 61.8316 28.6222C59.6598 27.2687 56.6694 26.6391 53.27 26.6391Z" fill="white"/>
<path d="M32.053 57.833C27.5203 57.833 23.5857 56.8256 20.9731 54.7169C18.8012 52.9856 17.7625 50.6248 17.9198 47.9178C18.2661 42.7555 22.8932 36.9953 30.2903 32.5255C41.8739 25.5062 56.5736 24.0267 63.0265 29.2204C65.1983 30.9517 66.2369 33.3124 66.0795 36.0195C65.7336 41.1817 61.1063 46.942 53.7091 51.4117C46.7843 55.6296 38.7576 57.833 32.053 57.833ZM51.9466 26.2931C45.2734 26.2931 37.2782 28.4965 30.3533 32.6829C22.9876 37.1212 18.392 42.85 18.0772 47.9493C17.8884 50.5933 18.9271 52.9225 21.0675 54.6222C27.4889 59.7844 42.0942 58.3052 53.6463 51.3174C61.012 46.879 65.6074 41.1502 65.9222 36.0509C66.1111 33.4069 65.0725 31.0776 62.9318 29.3778C60.3509 27.3003 56.4478 26.2931 51.9466 26.2931Z" fill="white"/>
<path d="M33.5952 58.3367C27.8349 58.3367 22.8301 56.8256 19.9342 53.804C17.8882 51.6634 17.0383 48.9564 17.542 45.9976C18.4233 40.4891 23.5226 34.7603 31.1715 30.6683C43.3216 24.184 58.0842 23.9637 64.0649 30.1961C66.111 32.3366 66.961 35.0436 66.4573 38.0024C65.5757 43.5109 60.4766 49.2397 52.8277 53.3319C46.5952 56.6682 39.6703 58.3367 33.5952 58.3367ZM50.404 25.7894C44.3604 25.7894 37.4669 27.4576 31.2345 30.7942C23.617 34.8547 18.5492 40.5521 17.6994 45.9976C17.2272 48.9249 18.0456 51.5691 20.0601 53.6778C26.0093 59.879 40.6776 59.6585 52.7962 53.1745C60.4135 49.1138 65.4814 43.4165 66.3314 37.971C66.8036 35.0436 65.9851 32.3995 63.9707 30.2906C61.0746 27.3003 56.1329 25.7894 50.404 25.7894Z" fill="white"/>
<path d="M35.2633 59.0289C28.2125 59.0289 22.0745 56.857 18.9897 52.6707C17.0696 50.0895 16.503 46.9733 17.3529 43.6997C18.8323 37.9394 24.3723 32.3365 32.1786 28.7166C44.8638 22.8304 59.5951 24.0266 65.009 31.3293C66.9292 33.9104 67.4957 37.0266 66.646 40.3002C65.1664 46.0605 59.6263 51.6633 51.8201 55.2832C46.3747 57.8013 40.5829 59.0289 35.2633 59.0289ZM48.7355 25.0968C43.4788 25.0968 37.6871 26.3244 32.2415 28.8425C24.4667 32.4309 18.9582 38.0023 17.5103 43.7312C16.6919 46.9733 17.227 50.0266 19.1156 52.5764C24.4982 59.8474 39.135 60.9806 51.7574 55.1573C59.5321 51.569 65.0406 45.9975 66.5198 40.2687C67.3383 37.0266 66.8034 33.9733 64.9147 31.4237C61.8298 27.2687 55.7232 25.0968 48.7355 25.0968Z" fill="white"/>
<path d="M36.9649 59.9416C28.5919 59.9416 21.2893 56.8885 18.1731 51.38C16.4104 48.2638 16.19 44.7069 17.4806 41.087C19.5895 35.1694 25.5387 29.7868 33.4079 26.702C46.5653 21.5398 61.1392 24.2154 65.892 32.6512C67.6548 35.7674 67.8753 39.3243 66.5847 42.9442C64.4759 48.8619 58.5264 54.2445 50.6574 57.3291C46.0932 59.0919 41.3716 59.9416 36.9649 59.9416ZM47.069 24.1839C42.6622 24.1839 37.9721 25.0338 33.4394 26.7965C25.6016 29.8812 19.684 35.2323 17.575 41.1185C16.2845 44.7069 16.5363 48.2323 18.2675 51.2857C22.9891 59.6584 37.4685 62.3024 50.5629 57.1718C58.4006 54.0871 64.3185 48.736 66.4273 42.8497C67.7179 39.2614 67.4659 35.736 65.7347 32.6827C62.65 27.2057 55.379 24.1839 47.069 24.1839Z" fill="white"/>
<path d="M38.5055 61.1065C28.8421 61.1065 20.3747 56.9202 17.4159 49.9007C15.8735 46.1864 16.0309 42.1259 17.8566 38.1283C20.5951 32.1792 26.9219 27.1114 34.7597 24.5932C48.3263 20.2494 62.5856 24.4988 66.583 34.0993C68.1253 37.8135 67.9679 41.8741 66.1424 45.8717C63.4037 51.8207 57.077 56.8886 49.2392 59.4068C45.6508 60.5401 41.9994 61.1065 38.5055 61.1065ZM45.4934 23.0508C41.9994 23.0508 38.3796 23.586 34.7912 24.7506C27.0164 27.2373 20.721 32.2736 17.9825 38.1913C16.1568 42.1259 15.9994 46.155 17.5418 49.8378C20.4692 56.8255 28.8735 60.9491 38.474 60.9491C41.968 60.9491 45.5878 60.4139 49.1762 59.2494C56.9512 56.7628 63.2463 51.7264 65.985 45.8087C67.8105 41.8741 67.9679 37.845 66.4256 34.1622C63.5299 27.1743 55.0937 23.0508 45.4934 23.0508Z" fill="white"/>
<path d="M39.8287 62.4915C28.9376 62.4915 19.3686 56.9202 16.819 48.201C15.5284 43.7942 16.158 39.1671 18.6447 34.8547C22.0757 28.9056 28.497 24.4044 36.2718 22.4843C50.1531 19.0533 64.0028 25.0339 67.1506 35.7991C68.4412 40.2058 67.8117 44.8329 65.325 49.1453C61.8941 55.0943 55.4728 59.5958 47.6979 61.5156C45.0539 62.1767 42.4098 62.4915 39.8287 62.4915ZM44.1725 21.6659C41.5914 21.6659 38.9788 21.9806 36.3347 22.6417C28.5914 24.5303 22.2016 29 18.802 34.9177C16.3468 39.1985 15.7173 43.7942 16.9764 48.1695C19.4946 56.7944 29.0006 62.3341 39.8287 62.3341C42.4098 62.3341 45.0224 62.0193 47.6665 61.3582C55.4097 59.4384 61.7998 54.9685 65.1992 49.0508C67.6543 44.77 68.2838 40.1743 67.0247 35.7991C64.5065 27.1743 55.0006 21.6659 44.1725 21.6659Z" fill="white"/>
<path d="M40.8674 64.0971C28.7802 64.0971 18.2984 56.8258 16.3783 46.344C15.4339 41.2133 16.6615 35.8622 19.8722 31.298C23.8698 25.6007 30.4799 21.6031 38.0029 20.3126C52.136 17.9203 65.4193 25.6951 67.6227 37.6564C68.567 42.7871 67.3394 48.1382 64.129 52.7025C60.1312 58.3996 53.521 62.3974 45.9981 63.688C44.2669 63.9713 42.5671 64.0971 40.8674 64.0971ZM43.1337 20.0293C41.4654 20.0293 39.7657 20.1552 38.0344 20.47C30.5429 21.729 23.9642 25.7266 19.9981 31.3925C16.8189 35.9252 15.5913 41.2133 16.5356 46.3126C18.4557 56.7315 28.8746 63.9397 40.8988 63.9397C42.5671 63.9397 44.2669 63.8139 45.9981 63.4991C53.4898 62.24 60.0685 58.2422 64.0343 52.5763C67.2136 48.0438 68.4411 42.7557 67.4968 37.6564C65.5454 27.269 55.1579 20.0293 43.1337 20.0293Z" fill="white"/>
<path d="M41.5909 65.9539C28.3706 65.9539 17.1648 56.6369 16.0945 44.2663C14.9299 31.1089 25.6321 19.3995 39.9226 18.1719C46.8476 17.5738 53.5521 19.4624 58.8402 23.5544C64.1286 27.6149 67.339 33.3752 67.9058 39.7336C68.4723 46.0919 66.3004 52.3244 61.7993 57.2661C57.2978 62.2082 51.0024 65.2301 44.1091 65.8596C43.2592 65.8908 42.4408 65.9539 41.5909 65.9539ZM42.4093 18.2033C41.5909 18.2033 40.741 18.2348 39.9226 18.2978C25.7265 19.5254 15.0873 31.1719 16.2519 44.2348C17.3221 56.5423 28.465 65.765 41.6224 65.765C42.4408 65.765 43.2592 65.7334 44.0776 65.6707C50.9712 65.0727 57.2035 62.0508 61.6731 57.1403C66.143 52.2301 68.3149 46.0605 67.7484 39.7336C67.1816 33.4067 64.0024 27.7094 58.7459 23.6488C54.1189 20.0919 48.4214 18.2033 42.4093 18.2033Z" fill="white"/>
<path d="M42 68C27.678 68 16 56.3222 16 42C16 27.678 27.678 16 42 16C56.3222 16 68 27.678 68 42C68 56.3222 56.3534 68 42 68ZM42 16.1574C27.7409 16.1574 16.1574 27.7409 16.1574 42C16.1574 56.2591 27.7409 67.8426 42 67.8426C56.2591 67.8426 67.8426 56.2591 67.8426 42C67.8426 27.7409 56.2591 16.1574 42 16.1574Z" fill="white" stroke="white" stroke-width="0.0346667" stroke-miterlimit="10"/>
</svg>
